<svg xmlns="http://www.w3.org/2000/svg" xmlns:xlink="http://www.w3.org/1999/xlink" version="1.1" width="1000" height="1000" viewBox="0 0 1000 1000" xml:space="preserve">
<desc>Created with Fabric.js 3.5.0</desc>
<defs>
</defs>
<rect x="0" y="0" width="100%" height="100%" fill="#ffffff"/>
<g transform="matrix(2.0232 0 0 2.0232 500.0001 500.0001)" id="871858">
<g style="" vector-effect="non-scaling-stroke">
		<g transform="matrix(0.1333 0 0 -0.1333 -12.0332 -97.3627)">
<path style="stroke: none; stroke-width: 1; stroke-dasharray: none; stroke-linecap: butt; stroke-dashoffset: 0; stroke-linejoin: miter; stroke-miterlimit: 4; is-custom-font: none; font-file-url: none; fill: rgb(0,0,0); fill-rule: nonzero; opacity: 1;" transform=" translate(-1595.0597, -2370)" d="M 367 3243 c -9 -8 -9 -1753 -1 -1753 c 3 0 23 13 43 29 c 20 16 61 41 92 56 l 57 28 l -14 56 c -47 199 23 432 174 579 c 127 123 259 176 442 176 c 149 0 248 -30 378 -115 c 25 -17 31 -18 26 -5 c -5 13 1 16 32 16 c 77 -1 148 -50 179 -122 c 24 -59 20 -103 -13 -127 c -27 -21 -26 -21 28 1 c 79 31 280 32 358 1 c 174 -70 298 -213 334 -384 c 12 -57 13 -59 43 -59 c 79 0 224 -59 270 -110 c 10 -11 22 -20 27 -20 c 4 0 8 396 8 880 l 0 880 l -1228 0 c -676 0 -1232 -3 -1235 -7 z m 1415 -223 c 38 -433 379 -775 813 -817 l 80 -8 l 3 -77 l 3 -78 l -43 0 c -125 0 -302 47 -443 118 c -224 112 -407 312 -498 542 c -50 127 -93 357 -72 390 c 4 7 33 10 78 8 l 72 -3 l 7 -75 z m 298 47 c 0 -53 36 -179 69 -246 c 39 -76 141 -185 215 -230 c 76 -46 167 -77 249 -86 l 68 -7 l -3 -76 l -3 -77 l -58 3 c -33 2 -92 12 -132 22 c -247 63 -447 255 -529 508 c -17 51 -37 200 -29 215 c 2 4 38 7 79 7 l 74 0 l 0 -33 z m 300 8 c 0 -41 38 -129 74 -171 c 42 -49 116 -90 179 -99 l 47 -7 l 0 -74 c 0 -54 -4 -76 -14 -80 c -23 -9 -147 25 -207 57 c -115 62 -211 198 -229 326 c -4 32 -6 61 -3 66 c 2 4 38 7 79 7 c 72 0 74 -1 74 -25 z" stroke-linecap="round"/>
</g>
		<g transform="matrix(0.1333 0 0 -0.1333 -13.4104 168.6615)">
<path style="stroke: none; stroke-width: 1; stroke-dasharray: none; stroke-linecap: butt; stroke-dashoffset: 0; stroke-linejoin: miter; stroke-miterlimit: 4; is-custom-font: none; font-file-url: none; fill: rgb(0,0,0); fill-rule: nonzero; opacity: 1;" transform=" translate(-1584.4714, -374.9774)" d="M 1522 607 c -85 -31 -136 -121 -136 -237 c 1 -142 73 -230 197 -238 c 51 -3 70 1 107 20 c 48 26 86 81 92 133 c 3 29 1 30 -39 33 c -39 3 -42 1 -53 -32 c -30 -92 -130 -101 -187 -17 c -18 27 -23 48 -23 98 c 0 108 39 163 113 163 c 49 0 73 -13 92 -50 c 13 -26 21 -30 55 -30 c 34 0 40 3 40 20 c 0 29 -28 81 -54 103 c -54 45 -135 58 -204 34 z" stroke-linecap="round"/>
</g>
		<g transform="matrix(0.1333 0 0 -0.1333 27.6652 168.8065)">
<path style="stroke: none; stroke-width: 1; stroke-dasharray: none; stroke-linecap: butt; stroke-dashoffset: 0; stroke-linejoin: miter; stroke-miterlimit: 4; is-custom-font: none; font-file-url: none; fill: rgb(0,0,0); fill-rule: nonzero; opacity: 1;" transform=" translate(-1892.5, -373.8923)" d="M 1857 604 c -4 -4 -7 -110 -7 -236 l 0 -229 l 43 3 l 42 3 l 0 230 l 0 230 l -35 3 c -20 2 -39 0 -43 -4 z" stroke-linecap="round"/>
</g>
		<g transform="matrix(0.1333 0 0 -0.1333 162.0683 169.2046)">
<path style="stroke: none; stroke-width: 1; stroke-dasharray: none; stroke-linecap: butt; stroke-dashoffset: 0; stroke-linejoin: miter; stroke-miterlimit: 4; is-custom-font: none; font-file-url: none; fill: rgb(0,0,0); fill-rule: nonzero; opacity: 1;" transform=" translate(-2900.5523, -370.9049)" d="M 2980 530 c 0 -45 -3 -80 -7 -78 c -81 41 -120 44 -171 11 c -58 -36 -80 -168 -42 -250 c 34 -77 118 -105 186 -62 c 29 17 34 18 34 5 c 0 -12 10 -16 40 -16 l 40 0 l -2 233 l -3 232 l -37 3 l -38 3 l 0 -81 z m -37 -130 c 30 -24 42 -73 33 -126 c -14 -72 -80 -98 -126 -49 c -19 20 -23 36 -23 87 c 0 54 3 64 27 85 c 33 28 56 29 89 3 z" stroke-linecap="round"/>
</g>
		<g transform="matrix(0.1333 0 0 -0.1333 -182.6746 169.3923)">
<path style="stroke: none; stroke-width: 1; stroke-dasharray: none; stroke-linecap: butt; stroke-dashoffset: 0; stroke-linejoin: miter; stroke-miterlimit: 4; is-custom-font: none; font-file-url: none; fill: rgb(0,0,0); fill-rule: nonzero; opacity: 1;" transform=" translate(-315, -369.5)" d="M 80 370 l 0 -230 l 40 0 l 40 0 l 0 162 c 0 102 4 158 9 152 c 6 -5 32 -76 59 -159 l 48 -150 l 35 -3 c 39 -3 32 -17 93 176 c 20 62 40 121 46 130 c 6 12 9 -34 10 -146 l 0 -163 l 43 3 l 42 3 l 3 228 l 2 227 l -68 0 l -68 0 l -39 -132 c -53 -183 -54 -187 -65 -167 c -5 9 -28 74 -50 145 c -23 71 -43 135 -45 142 c -3 8 -26 12 -70 12 l -65 0 l 0 -230 z" stroke-linecap="round"/>
</g>
		<g transform="matrix(0.1333 0 0 -0.1333 -117.6721 169.3256)">
<path style="stroke: none; stroke-width: 1; stroke-dasharray: none; stroke-linecap: butt; stroke-dashoffset: 0; stroke-linejoin: miter; stroke-miterlimit: 4; is-custom-font: none; font-file-url: none; fill: rgb(0,0,0); fill-rule: nonzero; opacity: 1;" transform=" translate(-802.5, -370)" d="M 640 370 l 0 -230 l 163 2 l 162 3 l 0 35 l 0 35 l -115 5 l -115 5 l -3 54 c -2 37 1 57 10 62 c 7 5 55 9 106 9 l 92 0 l 0 35 l 0 35 l -106 0 l -105 0 l 3 53 l 3 52 l 113 3 l 112 3 l 0 34 l 0 35 l -160 0 l -160 0 l 0 -230 z" stroke-linecap="round"/>
</g>
		<g transform="matrix(0.1333 0 0 -0.1333 -66.005 169.3256)">
<path style="stroke: none; stroke-width: 1; stroke-dasharray: none; stroke-linecap: butt; stroke-dashoffset: 0; stroke-linejoin: miter; stroke-miterlimit: 4; is-custom-font: none; font-file-url: none; fill: rgb(0,0,0); fill-rule: nonzero; opacity: 1;" transform=" translate(-1190, -370)" d="M 1040 370 l 0 -230 l 150 0 l 150 0 l 0 40 l 0 39 l -102 3 l -103 3 l -3 188 l -2 187 l -45 0 l -45 0 l 0 -230 z" stroke-linecap="round"/>
</g>
		<g transform="matrix(0.1333 0 0 -0.1333 63.6026 177.5039)">
<path style="stroke: none; stroke-width: 1; stroke-dasharray: none; stroke-linecap: butt; stroke-dashoffset: 0; stroke-linejoin: miter; stroke-miterlimit: 4; is-custom-font: none; font-file-url: none; fill: rgb(0,0,0); fill-rule: nonzero; opacity: 1;" transform=" translate(-2162.0595, -308.6768)" d="M 2112 481 c -73 -19 -118 -99 -110 -196 c 7 -86 60 -143 139 -152 c 66 -7 118 15 152 64 c 25 35 30 51 30 107 c 1 76 -19 121 -67 154 c -36 25 -97 34 -144 23 z m 81 -70 c 33 -13 51 -61 45 -121 c -6 -62 -29 -90 -74 -90 c -62 0 -96 69 -74 149 c 10 39 41 71 67 71 c 6 0 23 -4 36 -9 z" stroke-linecap="round"/>
</g>
		<g transform="matrix(0.1333 0 0 -0.1333 112.6604 177.7193)">
<path style="stroke: none; stroke-width: 1; stroke-dasharray: none; stroke-linecap: butt; stroke-dashoffset: 0; stroke-linejoin: miter; stroke-miterlimit: 4; is-custom-font: none; font-file-url: none; fill: rgb(0,0,0); fill-rule: nonzero; opacity: 1;" transform=" translate(-2529.9901, -307.0615)" d="M 2386 464 c -10 -26 -7 -189 5 -243 c 5 -27 19 -57 31 -68 c 27 -25 118 -25 145 -1 c 24 22 33 23 33 3 c 0 -11 11 -15 40 -15 l 40 0 l 0 170 l 0 170 l -39 0 l -39 0 l -3 -119 c -4 -133 -17 -161 -70 -161 c -48 0 -59 29 -59 162 l 0 118 l -39 0 c -26 0 -41 -5 -45 -16 z" stroke-linecap="round"/>
</g>
</g>
</g>
<g transform="matrix(11.9627 0 0 11.9627 500 578.9447)" id="906161">
<path style="stroke: rgb(0,0,0); stroke-width: 22; stroke-dasharray: none; stroke-linecap: round; stroke-dashoffset: 0; stroke-linejoin: round; stroke-miterlimit: 4; is-custom-font: none; font-file-url: none; fill: none; fill-rule: nonzero; opacity: 1;" vector-effect="non-scaling-stroke" transform=" translate(-12, -12)" d="M 2 12 H 12 M 9 4 V 20 M 3 9 L 6 12 L 3 15 M 12 6 L 9 9 L 6 6 M 6 18 L 9 15 L 10.5 16.5 M 20 14.5351 V 4 C 20 2.89543 19.1046 2 18 2 C 16.8954 2 16 2.89543 16 4 V 14.5351 C 14.8044 15.2267 14 16.5194 14 18 C 14 20.2091 15.7909 22 18 22 C 20.2091 22 22 20.2091 22 18 C 22 16.5194 21.1956 15.2267 20 14.5351 Z" stroke-linecap="round"/>
</g>
</svg>