<?xml version="1.0" encoding="UTF-8"?>
<svg xmlns="http://www.w3.org/2000/svg" xmlns:xlink="http://www.w3.org/1999/xlink" width="674px" height="656px" viewBox="0 0 674 656" version="1.1">
<g id="surface1">
<path style=" stroke:none;fill-rule:nonzero;fill:rgb(0%,0%,0%);fill-opacity:1;" d="M 73.398438 7.398438 C 71.601562 9 71.601562 358 73.199219 358 C 73.800781 358 77.800781 355.398438 81.800781 352.199219 C 85.800781 349 94 344 100.199219 341 L 111.601562 335.398438 L 108.800781 324.199219 C 99.398438 284.398438 113.398438 237.800781 143.601562 208.398438 C 169 183.800781 195.398438 173.199219 232 173.199219 C 261.800781 173.199219 281.601562 179.199219 307.601562 196.199219 C 312.601562 199.601562 313.800781 199.800781 312.800781 197.199219 C 311.800781 194.601562 313 194 319.199219 194 C 334.601562 194.199219 348.800781 204 355 218.398438 C 359.800781 230.199219 359 239 352.398438 243.800781 C 347 248 347.199219 248 358 243.601562 C 373.800781 237.398438 414 237.199219 429.601562 243.398438 C 464.398438 257.398438 489.199219 286 496.398438 320.199219 C 498.800781 331.601562 499 332 505 332 C 520.800781 332 549.800781 343.800781 559 354 C 561 356.199219 563.398438 358 564.398438 358 C 565.199219 358 566 278.800781 566 182 L 566 6 L 320.398438 6 C 185.199219 6 74 6.601562 73.398438 7.398438 Z M 356.398438 52 C 364 138.601562 432.199219 207 519 215.398438 L 535 217 L 535.601562 232.398438 L 536.199219 248 L 527.601562 248 C 502.601562 248 467.199219 238.601562 439 224.398438 C 394.199219 202 357.601562 162 339.398438 116 C 329.398438 90.601562 320.800781 44.601562 325 38 C 325.800781 36.601562 331.601562 36 340.601562 36.398438 L 355 37 Z M 416 42.601562 C 416 53.199219 423.199219 78.398438 429.800781 91.800781 C 437.601562 107 458 128.800781 472.800781 137.800781 C 488 147 506.199219 153.199219 522.601562 155 L 536.199219 156.398438 L 535.601562 171.601562 L 535 187 L 523.398438 186.398438 C 516.800781 186 505 184 497 182 C 447.601562 169.398438 407.601562 131 391.199219 80.398438 C 387.800781 70.199219 383.800781 40.398438 385.398438 37.398438 C 385.800781 36.601562 393 36 401.199219 36 L 416 36 Z M 476 41 C 476 49.199219 483.601562 66.800781 490.800781 75.199219 C 499.199219 85 514 93.199219 526.601562 95 L 536 96.398438 L 536 111.199219 C 536 122 535.199219 126.398438 533.199219 127.199219 C 528.601562 129 503.800781 122.199219 491.800781 115.800781 C 468.800781 103.398438 449.601562 76.199219 446 50.601562 C 445.199219 44.199219 444.800781 38.398438 445.398438 37.398438 C 445.800781 36.601562 453 36 461.199219 36 C 475.601562 36 476 36.199219 476 41 Z M 476 41 "/>
<path style=" stroke:none;fill-rule:nonzero;fill:rgb(0%,0%,0%);fill-opacity:1;" d="M 304.398438 534.601562 C 287.398438 540.800781 277.199219 558.800781 277.199219 582 C 277.398438 610.398438 291.800781 628 316.601562 629.601562 C 326.800781 630.199219 330.601562 629.398438 338 625.601562 C 347.601562 620.398438 355.199219 609.398438 356.398438 599 C 357 593.199219 356.601562 593 348.601562 592.398438 C 340.800781 591.800781 340.199219 592.199219 338 598.800781 C 332 617.199219 312 619 300.601562 602.199219 C 297 596.800781 296 592.601562 296 582.601562 C 296 561 303.800781 550 318.601562 550 C 328.398438 550 333.199219 552.601562 337 560 C 339.601562 565.199219 341.199219 566 348 566 C 354.800781 566 356 565.398438 356 562 C 356 556.199219 350.398438 545.800781 345.199219 541.398438 C 334.398438 532.398438 318.199219 529.800781 304.398438 534.601562 Z M 304.398438 534.601562 "/>
<path style=" stroke:none;fill-rule:nonzero;fill:rgb(0%,0%,0%);fill-opacity:1;" d="M 371.398438 535.199219 C 370.601562 536 370 557.199219 370 582.398438 L 370 628.199219 L 378.601562 627.601562 L 387 627 L 387 535 L 380 534.398438 C 376 534 372.199219 534.398438 371.398438 535.199219 Z M 371.398438 535.199219 "/>
<path style=" stroke:none;fill-rule:nonzero;fill:rgb(0%,0%,0%);fill-opacity:1;" d="M 596 550 C 596 559 595.398438 566 594.601562 565.601562 C 578.398438 557.398438 570.601562 556.800781 560.398438 563.398438 C 548.800781 570.601562 544.398438 597 552 613.398438 C 558.800781 628.800781 575.601562 634.398438 589.199219 625.800781 C 595 622.398438 596 622.199219 596 624.800781 C 596 627.199219 598 628 604 628 L 612 628 L 611.601562 581.398438 L 611 535 L 603.601562 534.398438 L 596 533.800781 Z M 588.601562 576 C 594.601562 580.800781 597 590.601562 595.199219 601.199219 C 592.398438 615.601562 579.199219 620.800781 570 611 C 566.199219 607 565.398438 603.800781 565.398438 593.601562 C 565.398438 582.800781 566 580.800781 570.800781 576.601562 C 577.398438 571 582 570.800781 588.601562 576 Z M 588.601562 576 "/>
<path style=" stroke:none;fill-rule:nonzero;fill:rgb(0%,0%,0%);fill-opacity:1;" d="M 16 582 L 16 628 L 32 628 L 32 595.601562 C 32 575.199219 32.800781 564 33.800781 565.199219 C 35 566.199219 40.199219 580.398438 45.601562 597 L 55.199219 627 L 62.199219 627.601562 C 70 628.199219 68.601562 631 80.800781 592.398438 C 84.800781 580 88.800781 568.199219 90 566.398438 C 91.199219 564 91.800781 573.199219 92 595.601562 L 92 628.199219 L 100.601562 627.601562 L 109 627 L 109.601562 581.398438 L 110 536 L 82.800781 536 L 75 562.398438 C 64.398438 599 64.199219 599.800781 62 595.800781 C 61 594 56.398438 581 52 566.800781 C 47.398438 552.601562 43.398438 539.800781 43 538.398438 C 42.398438 536.800781 37.800781 536 29 536 L 16 536 Z M 16 582 "/>
<path style=" stroke:none;fill-rule:nonzero;fill:rgb(0%,0%,0%);fill-opacity:1;" d="M 128 582 L 128 628 L 160.601562 627.601562 L 193 627 L 193 613 L 147 611 L 146.398438 600.199219 C 146 592.800781 146.601562 588.800781 148.398438 587.800781 C 149.800781 586.800781 159.398438 586 169.601562 586 L 188 586 L 188 572 L 145.800781 572 L 146.398438 561.398438 L 147 551 L 169.601562 550.398438 L 192 549.800781 L 192 536 L 128 536 Z M 128 582 "/>
<path style=" stroke:none;fill-rule:nonzero;fill:rgb(0%,0%,0%);fill-opacity:1;" d="M 208 582 L 208 628 L 268 628 L 268 612.199219 L 247.601562 611.601562 L 227 611 L 226.398438 573.398438 L 226 536 L 208 536 Z M 208 582 "/>
<path style=" stroke:none;fill-rule:nonzero;fill:rgb(0%,0%,0%);fill-opacity:1;" d="M 422.398438 559.800781 C 407.800781 563.601562 398.800781 579.601562 400.398438 599 C 401.800781 616.199219 412.398438 627.601562 428.199219 629.398438 C 441.398438 630.800781 451.800781 626.398438 458.601562 616.601562 C 463.601562 609.601562 464.601562 606.398438 464.601562 595.199219 C 464.800781 580 460.800781 571 451.199219 564.398438 C 444 559.398438 431.800781 557.601562 422.398438 559.800781 Z M 438.601562 573.800781 C 445.199219 576.398438 448.800781 586 447.601562 598 C 446.398438 610.398438 441.800781 616 432.800781 616 C 420.398438 616 413.601562 602.199219 418 586.199219 C 420 578.398438 426.199219 572 431.398438 572 C 432.601562 572 436 572.800781 438.601562 573.800781 Z M 438.601562 573.800781 "/>
<path style=" stroke:none;fill-rule:nonzero;fill:rgb(0%,0%,0%);fill-opacity:1;" d="M 477.199219 563.199219 C 475.199219 568.398438 475.800781 601 478.199219 611.800781 C 479.199219 617.199219 482 623.199219 484.398438 625.398438 C 489.800781 630.398438 508 630.398438 513.398438 625.601562 C 518.199219 621.199219 520 621 520 625 C 520 627.199219 522.199219 628 528 628 L 536 628 L 536 560 L 520.398438 560 L 519.800781 583.800781 C 519 610.398438 516.398438 616 505.800781 616 C 496.199219 616 494 610.199219 494 583.601562 L 494 560 L 486.199219 560 C 481 560 478 561 477.199219 563.199219 Z M 477.199219 563.199219 "/>
<path style=" stroke:none;fill-rule:nonzero;fill:rgb(0%,0%,0%);fill-opacity:1;" d="M 289.089844 294.066406 C 284.617188 294.066406 281.015625 297.667969 281.015625 302.144531 L 281.015625 319.484375 L 266.324219 304.835938 C 263.15625 301.667969 258.050781 301.667969 254.882812 304.835938 C 251.714844 308.003906 251.714844 313.109375 254.882812 316.277344 L 280.972656 342.367188 L 280.972656 370.914062 L 252.46875 370.914062 L 226.378906 344.824219 C 223.210938 341.65625 218.101562 341.65625 214.933594 344.824219 C 211.769531 347.992188 211.769531 353.097656 214.933594 356.265625 L 229.625 370.953125 L 212.242188 370.953125 C 207.769531 370.953125 204.167969 374.554688 204.167969 379.03125 C 204.167969 383.503906 207.769531 387.105469 212.242188 387.105469 L 229.625 387.105469 L 214.933594 401.796875 C 211.769531 404.964844 211.769531 410.070312 214.933594 413.238281 C 218.101562 416.40625 223.210938 416.40625 226.378906 413.238281 L 252.46875 387.148438 L 280.972656 387.148438 L 280.972656 415.652344 L 254.882812 441.742188 C 251.714844 444.910156 251.714844 450.019531 254.882812 453.1875 C 258.050781 456.351562 263.15625 456.351562 266.324219 453.1875 L 281.015625 438.496094 L 281.015625 455.878906 C 281.015625 460.351562 284.617188 463.953125 289.089844 463.953125 C 293.566406 463.953125 297.167969 460.351562 297.167969 455.878906 L 297.167969 302.144531 C 297.167969 297.707031 293.566406 294.066406 289.089844 294.066406 Z M 289.089844 294.066406 "/>
<path style=" stroke:none;fill-rule:nonzero;fill:rgb(0%,0%,0%);fill-opacity:1;" d="M 379.714844 381.445312 L 379.714844 322.175781 C 379.714844 308.636719 368.789062 297.589844 355.40625 297.589844 C 341.984375 297.589844 331.097656 308.636719 331.097656 322.175781 L 331.097656 381.445312 C 319.617188 389.484375 312.648438 402.707031 312.648438 417.078125 C 312.648438 440.953125 331.851562 460.390625 355.40625 460.390625 C 379.003906 460.390625 398.167969 440.953125 398.167969 417.078125 C 398.167969 402.707031 391.199219 389.484375 379.714844 381.445312 Z M 355.40625 444.199219 C 340.757812 444.199219 328.800781 432.003906 328.800781 417.039062 C 328.800781 406.941406 334.226562 397.757812 343.015625 393.046875 C 345.628906 391.621094 347.25 388.890625 347.25 385.917969 L 347.25 322.175781 C 347.25 317.542969 350.894531 313.742188 355.40625 313.742188 C 359.921875 313.742188 363.5625 317.503906 363.5625 322.175781 L 363.5625 385.917969 C 363.5625 388.890625 365.1875 391.621094 367.800781 393.046875 C 376.550781 397.757812 382.011719 406.980469 382.011719 417.039062 C 382.011719 432.042969 370.054688 444.199219 355.40625 444.199219 Z M 355.40625 444.199219 "/>
</g>
</svg>
